<svg data-v-423bf9ae="" xmlns="http://www.w3.org/2000/svg" viewBox="0 0 214.67679326118528 60" class="font"><!----><!----><!----><g data-v-423bf9ae="" id="4511ee02-3054-49b1-a807-431ca5e56881" fill="white" transform="matrix(5.703421805055199,0,0,5.703421805055199,-4.733836967258512,-18.02281315508447)"><path d="M6.17 5.96L8.83 5.96L8.83 13.55L6.30 13.55L6.30 12.74Q5.88 13.20 5.29 13.44Q4.70 13.68 4.05 13.68L4.05 13.68Q2.58 13.68 1.70 12.81Q0.83 11.94 0.83 10.21L0.83 10.21L0.83 5.96L3.49 5.96L3.49 9.77Q3.49 10.63 3.81 11.02Q4.13 11.41 4.75 11.41L4.75 11.41Q5.38 11.41 5.78 10.97Q6.17 10.53 6.17 9.62L6.17 9.62L6.17 5.96ZM15.48 5.84Q16.90 5.84 17.76 6.68Q18.62 7.52 18.62 9.21L18.62 9.21L18.62 13.55L15.96 13.55L15.96 9.65Q15.96 8.09 14.71 8.09L14.71 8.09Q14.03 8.09 13.62 8.54Q13.20 8.99 13.20 9.88L13.20 9.88L13.20 13.55L10.54 13.55L10.54 3.16L13.20 3.16L13.20 6.66Q13.64 6.26 14.22 6.05Q14.81 5.84 15.48 5.84L15.48 5.84ZM25.61 5.96L28.27 5.96L28.27 13.55L25.73 13.55L25.73 12.74Q25.31 13.20 24.72 13.44Q24.14 13.68 23.48 13.68L23.48 13.68Q22.01 13.68 21.13 12.81Q20.26 11.94 20.26 10.21L20.26 10.21L20.26 5.96L22.92 5.96L22.92 9.77Q22.92 10.63 23.24 11.02Q23.56 11.41 24.18 11.41L24.18 11.41Q24.81 11.41 25.21 10.97Q25.61 10.53 25.61 9.62L25.61 9.62L25.61 5.96ZM34.75 5.84Q35.78 5.84 36.63 6.31Q37.48 6.79 37.98 7.68Q38.47 8.57 38.47 9.74L38.47 9.74Q38.47 10.92 37.98 11.82Q37.48 12.71 36.63 13.20Q35.78 13.68 34.75 13.68L34.75 13.68Q33.25 13.68 32.51 12.80L32.51 12.80L32.51 13.55L29.97 13.55L29.97 3.16L32.63 3.16L32.63 6.62Q33.40 5.84 34.75 5.84L34.75 5.84ZM34.19 11.56Q34.89 11.56 35.34 11.08Q35.78 10.60 35.78 9.74L35.78 9.74Q35.78 8.90 35.34 8.43Q34.89 7.95 34.19 7.95L34.19 7.95Q33.49 7.95 33.04 8.43Q32.59 8.90 32.59 9.74L32.59 9.74Q32.59 10.60 33.04 11.08Q33.49 11.56 34.19 11.56L34.19 11.56Z"></path></g><!----><!----></svg>